<?xml version="1.0" encoding="UTF-8" standalone="no"?>
<!-- Created with Inkscape (http://www.inkscape.org/) -->

<svg
   xmlns:dc="http://purl.org/dc/elements/1.1/"
   xmlns:cc="http://creativecommons.org/ns#"
   xmlns:rdf="http://www.w3.org/1999/02/22-rdf-syntax-ns#"
   xmlns:svg="http://www.w3.org/2000/svg"
   xmlns="http://www.w3.org/2000/svg"
   xmlns:sodipodi="http://sodipodi.sourceforge.net/DTD/sodipodi-0.dtd"
   xmlns:inkscape="http://www.inkscape.org/namespaces/inkscape"
   width="1280"
   height="720"
   id="svg2"
   version="1.1"
   inkscape:version="0.48.3.1 r9886"
   sodipodi:docname="end.svg"
   inkscape:export-filename="/home/miguel/Dropbox/Poster@ISWC2013/Cartoon/end.png"
   inkscape:export-xdpi="90"
   inkscape:export-ydpi="90">
  <defs
     id="defs4" />
  <sodipodi:namedview
     id="base"
     pagecolor="#ffffff"
     bordercolor="#666666"
     borderopacity="1.0"
     inkscape:pageopacity="1"
     inkscape:pageshadow="2"
     inkscape:zoom="0.35"
     inkscape:cx="375"
     inkscape:cy="62.857143"
     inkscape:document-units="px"
     inkscape:current-layer="layer1"
     showgrid="false"
     showguides="true"
     inkscape:guide-bbox="true"
     inkscape:window-width="1600"
     inkscape:window-height="876"
     inkscape:window-x="0"
     inkscape:window-y="24"
     inkscape:window-maximized="1" />
  <metadata
     id="metadata7">
    <rdf:RDF>
      <cc:Work
         rdf:about="">
        <dc:format>image/svg+xml</dc:format>
        <dc:type
           rdf:resource="http://purl.org/dc/dcmitype/StillImage" />
        <dc:title></dc:title>
      </cc:Work>
    </rdf:RDF>
  </metadata>
  <g
     inkscape:label="Livello 1"
     inkscape:groupmode="layer"
     id="layer1"
     transform="translate(0,-332.36218)">
    <g
       id="g3753"
       transform="matrix(-0.02028196,0,0,0.02028196,433.06608,452.74362)">
      <g
         id="g3519"
         style="fill:#000080;stroke:none">
        <polygon
           id="polygon3521"
           points="10546,9008 10546,9008 11362,9229 11347,9277 11331,9324 10519,9105 " />
        <polygon
           id="polygon3523"
           points="12088,9519 12069,9565 11331,9324 11347,9277 11347,9277 11362,9229 12106,9472 " />
        <polygon
           id="polygon3525"
           points="12759,9779 12738,9824 12069,9565 12088,9519 12088,9519 12106,9472 12779,9733 " />
        <polygon
           id="polygon3527"
           points="13365,10056 13341,10100 12738,9824 12759,9779 12759,9779 12779,9733 13388,10011 " />
        <polygon
           id="polygon3529"
           points="13907,10346 13880,10388 13341,10100 13365,10056 13365,10056 13388,10011 13933,10303 " />
        <polygon
           id="polygon3531"
           points="14391,10646 14361,10686 13880,10388 13907,10346 13907,10346 13933,10303 14420,10605 " />
        <polygon
           id="polygon3533"
           points="14818,10955 14785,10993 14361,10686 14391,10646 14391,10646 14420,10605 14850,10916 " />
        <polygon
           id="polygon3535"
           points="15192,11269 15157,11304 14785,10993 14818,10955 14818,10955 14850,10916 15226,11233 " />
        <polygon
           id="polygon3537"
           points="15517,11585 15479,11618 15157,11304 15192,11269 15192,11269 15226,11233 15554,11551 " />
        <polygon
           id="polygon3539"
           points="15797,11902 15757,11932 15479,11618 15517,11585 15517,11585 15554,11551 15836,11871 " />
        <polygon
           id="polygon3541"
           points="16033,12216 15990,12242 15757,11932 15797,11902 15797,11902 15836,11871 16075,12189 " />
        <polygon
           id="polygon3543"
           points="16231,12525 16186,12548 15990,12242 16033,12216 16033,12216 16075,12189 16275,12501 " />
        <polygon
           id="polygon3545"
           points="16392,12826 16346,12846 16186,12548 16231,12525 16231,12525 16275,12501 16437,12805 " />
        <polygon
           id="polygon3547"
           points="16521,13116 16473,13132 16346,12846 16392,12826 16392,12826 16437,12805 16568,13099 " />
        <polygon
           id="polygon3549"
           points="16621,13393 16572,13406 16473,13132 16521,13116 16521,13116 16568,13099 16669,13379 " />
        <polygon
           id="polygon3551"
           points="16695,13654 16646,13664 16572,13406 16621,13393 16621,13393 16669,13379 16743,13643 " />
        <polygon
           id="polygon3553"
           points="16747,13897 16697,13904 16646,13664 16695,13654 16695,13654 16743,13643 16796,13889 " />
        <polygon
           id="polygon3555"
           points="16780,14118 16730,14122 16697,13904 16747,13897 16747,13897 16796,13889 16829,14113 " />
        <polygon
           id="polygon3557"
           points="16797,14316 16747,14317 16730,14122 16780,14118 16780,14118 16829,14113 16846,14314 " />
        <polygon
           id="polygon3559"
           points="16802,14487 16752,14485 16747,14317 16797,14316 16797,14316 16846,14314 16851,14488 " />
        <polygon
           id="polygon3561"
           points="16798,14629 16748,14624 16752,14485 16802,14487 16802,14487 16851,14488 16847,14633 " />
        <polygon
           id="polygon3563"
           points="16789,14739 16739,14731 16748,14624 16798,14629 16798,14629 16847,14633 16838,14746 " />
        <polygon
           id="polygon3565"
           points="16777,14814 16728,14801 16739,14731 16789,14739 16789,14739 16838,14746 16825,14826 " />
        <polygon
           id="polygon3567"
           points="16777,14814 16777,14814 16825,14826 16815,14865 16718,14840 16728,14801 " />
      </g>
      <g
         id="g3569"
         style="fill:#0066cc;stroke:none">
        <polygon
           id="polygon3571"
           points="17306,14373 17269,14349 17230,14327 17191,14306 17150,14287 17108,14269 17064,14254 17020,14240 16975,14227 16929,14217 16883,14208 16836,14202 16789,14197 16742,14194 16694,14193 16694,14193 16646,14194 16599,14197 16552,14202 16505,14208 16459,14217 16413,14227 16368,14240 16324,14254 16280,14269 16238,14287 16197,14306 16158,14327 16119,14349 16082,14373 16047,14399 16013,14426 15982,14454 15951,14483 15923,14514 15897,14545 15873,14578 15851,14612 15831,14646 15813,14681 15798,14717 15785,14754 15774,14790 15766,14828 15760,14865 15756,14903 15755,14941 15755,14941 15756,14979 15760,15017 15766,15054 15774,15092 15785,15128 15798,15165 15813,15201 15831,15236 15851,15270 15873,15304 15897,15337 15923,15368 15951,15399 15982,15428 16013,15456 16047,15483 16082,15509 16119,15533 16158,15555 16197,15576 16238,15595 16280,15613 16324,15628 16368,15642 16413,15655 16459,15665 16505,15674 16552,15680 16599,15685 16646,15688 16694,15689 16694,15689 16742,15688 16789,15685 16836,15680 16883,15674 16929,15665 16975,15655 17020,15642 17064,15628 17108,15613 17150,15595 17191,15576 17230,15555 17269,15533 17306,15509 17341,15483 17375,15456 17406,15428 17437,15399 17465,15368 17491,15337 17515,15304 17537,15270 17557,15236 17575,15201 17590,15165 17603,15128 17614,15092 17622,15054 17628,15017 17632,14979 17633,14941 17633,14941 17632,14903 17628,14865 17622,14828 17614,14790 17603,14754 17590,14717 17575,14681 17557,14646 17537,14612 17515,14578 17491,14545 17465,14514 17437,14483 17406,14454 17375,14426 17341,14399 " />
      </g>
      <g
         id="g3573"
         style="fill:#000080;stroke:none">
        <polygon
           id="polygon3575"
           points="10070,9110 10070,9110 9215,8872 9230,8825 9244,8777 10097,9013 " />
        <polygon
           id="polygon3577"
           points="8439,8588 8454,8540 9244,8777 9230,8825 9230,8825 9215,8872 8423,8635 " />
        <polygon
           id="polygon3579"
           points="7710,8350 7726,8302 8454,8540 8439,8588 8439,8588 8423,8635 7693,8397 " />
        <polygon
           id="polygon3581"
           points="7040,8113 7057,8066 7726,8302 7710,8350 7710,8350 7693,8397 7022,8159 " />
        <polygon
           id="polygon3583"
           points="6426,7877 6445,7830 7057,8066 7040,8113 7040,8113 7022,8159 6406,7923 " />
        <polygon
           id="polygon3585"
           points="5866,7642 5886,7596 6445,7830 6426,7877 6426,7877 6406,7923 5845,7687 " />
        <polygon
           id="polygon3587"
           points="5358,7409 5380,7364 5886,7596 5866,7642 5866,7642 5845,7687 5335,7453 " />
        <polygon
           id="polygon3589"
           points="4899,7179 4923,7135 5380,7364 5358,7409 5358,7409 5335,7453 4874,7222 " />
        <polygon
           id="polygon3591"
           points="4487,6951 4512,6908 4923,7135 4899,7179 4899,7179 4874,7222 4461,6993 " />
        <polygon
           id="polygon3593"
           points="4119,6728 4146,6686 4512,6908 4487,6951 4487,6951 4461,6993 4091,6769 " />
        <polygon
           id="polygon3595"
           points="3793,6508 3823,6468 4146,6686 4119,6728 4119,6728 4091,6769 3762,6547 " />
        <polygon
           id="polygon3597"
           points="3507,6293 3539,6254 3823,6468 3793,6508 3793,6508 3762,6547 3474,6331 " />
        <polygon
           id="polygon3599"
           points="3259,6084 3293,6047 3539,6254 3507,6293 3507,6293 3474,6331 3224,6120 " />
        <polygon
           id="polygon3601"
           points="3045,5880 3081,5846 3293,6047 3259,6084 3259,6084 3224,6120 3008,5913 " />
        <polygon
           id="polygon3603"
           points="2864,5682 2903,5650 3081,5846 3045,5880 3045,5880 3008,5913 2824,5713 " />
        <polygon
           id="polygon3605"
           points="2713,5491 2754,5462 2903,5650 2864,5682 2864,5682 2824,5713 2671,5519 " />
        <polygon
           id="polygon3607"
           points="2589,5308 2632,5283 2754,5462 2713,5491 2713,5491 2671,5519 2545,5332 " />
        <polygon
           id="polygon3609"
           points="2491,5132 2536,5111 2632,5283 2589,5308 2589,5308 2545,5332 2445,5152 " />
        <polygon
           id="polygon3611"
           points="2416,4965 2463,4948 2536,5111 2491,5132 2491,5132 2445,5152 2368,4981 " />
        <polygon
           id="polygon3613"
           points="2361,4807 2409,4795 2463,4948 2416,4965 2416,4965 2368,4981 2312,4818 " />
        <polygon
           id="polygon3615"
           points="2325,4659 2374,4651 2409,4795 2361,4807 2361,4807 2312,4818 2275,4666 " />
        <polygon
           id="polygon3617"
           points="2304,4520 2353,4516 2374,4651 2325,4659 2325,4659 2275,4666 2254,4523 " />
        <polygon
           id="polygon3619"
           points="2296,4393 2345,4394 2353,4516 2304,4520 2304,4520 2254,4523 2246,4391 " />
        <polygon
           id="polygon3621"
           points="2300,4276 2349,4281 2345,4394 2296,4393 2296,4393 2246,4391 2250,4270 " />
        <polygon
           id="polygon3623"
           points="2312,4171 2361,4180 2349,4281 2300,4276 2300,4276 2250,4270 2262,4161 " />
        <polygon
           id="polygon3625"
           points="2330,4078 2378,4091 2361,4180 2312,4171 2312,4171 2262,4161 2281,4064 " />
        <polygon
           id="polygon3627"
           points="2352,3998 2399,4014 2378,4091 2330,4078 2330,4078 2281,4064 2304,3981 " />
        <polygon
           id="polygon3629"
           points="2375,3932 2420,3951 2399,4014 2352,3998 2352,3998 2304,3981 2329,3912 " />
        <polygon
           id="polygon3631"
           points="2398,3879 2442,3901 2420,3951 2375,3932 2375,3932 2329,3912 2353,3856 " />
        <polygon
           id="polygon3633"
           points="2417,3841 2460,3864 2442,3901 2398,3879 2398,3879 2353,3856 2373,3817 " />
        <polygon
           id="polygon3635"
           points="2430,3817 2470,3846 2460,3864 2417,3841 2417,3841 2373,3817 2389,3787 " />
        <polygon
           id="polygon3637"
           points="2430,3817 2430,3817 2389,3787 2394,3780 2475,3839 2470,3846 " />
      </g>
      <g
         id="g3639"
         style="fill:#0066cc;stroke:none">
        <polygon
           id="polygon3641"
           points="3056,3153 3025,3130 2992,3108 2958,3088 2923,3069 2887,3053 2850,3037 2812,3024 2773,3012 2734,3002 2695,2994 2655,2987 2614,2983 2574,2980 2533,2979 2533,2979 2492,2980 2452,2983 2411,2987 2371,2994 2332,3002 2293,3012 2254,3024 2216,3037 2179,3053 2143,3069 2108,3088 2074,3108 2041,3130 2010,3153 1980,3177 1951,3203 1924,3230 1898,3258 1874,3288 1852,3318 1831,3350 1812,3382 1795,3415 1780,3449 1767,3483 1756,3519 1746,3554 1739,3590 1734,3626 1731,3663 1730,3699 1730,3699 1731,3735 1734,3772 1739,3808 1746,3844 1756,3879 1767,3915 1780,3949 1795,3983 1812,4016 1831,4048 1852,4080 1874,4110 1898,4140 1924,4168 1951,4195 1980,4221 2010,4245 2041,4268 2074,4290 2108,4310 2143,4329 2179,4345 2216,4361 2254,4374 2293,4386 2332,4396 2371,4404 2411,4411 2452,4415 2492,4418 2533,4419 2533,4419 2574,4418 2614,4415 2655,4411 2695,4404 2734,4396 2773,4386 2812,4374 2850,4361 2887,4345 2923,4329 2958,4310 2992,4290 3025,4268 3056,4245 3086,4221 3115,4195 3142,4168 3168,4140 3192,4110 3214,4080 3235,4048 3254,4016 3271,3983 3286,3949 3299,3915 3310,3879 3320,3844 3327,3808 3332,3772 3335,3735 3336,3699 3336,3699 3335,3663 3332,3626 3327,3590 3320,3554 3310,3519 3299,3483 3286,3449 3271,3415 3254,3382 3235,3350 3214,3318 3192,3288 3168,3258 3142,3230 3115,3203 3086,3177 " />
      </g>
      <g
         id="g3643"
         style="fill:#000080;stroke:none">
        <polygon
           id="polygon3645"
           points="10622,17649 10622,17649 11415,17806 11404,17855 11392,17903 10603,17748 " />
        <polygon
           id="polygon3647"
           points="12111,18023 12097,18071 11392,17903 11404,17855 11404,17855 11415,17806 12124,17974 " />
        <polygon
           id="polygon3649"
           points="12738,18200 12722,18247 12097,18071 12111,18023 12111,18023 12124,17974 12753,18152 " />
        <polygon
           id="polygon3651"
           points="13289,18384 13270,18430 12722,18247 12738,18200 12738,18200 12753,18152 13307,18337 " />
        <polygon
           id="polygon3653"
           points="13769,18574 13747,18619 13270,18430 13289,18384 13289,18384 13307,18337 13790,18528 " />
        <polygon
           id="polygon3655"
           points="14183,18768 14158,18811 13747,18619 13769,18574 13769,18574 13790,18528 14207,18724 " />
        <polygon
           id="polygon3657"
           points="14535,18964 14507,19005 14158,18811 14183,18768 14183,18768 14207,18724 14562,18922 " />
        <polygon
           id="polygon3659"
           points="14830,19161 14798,19199 14507,19005 14535,18964 14535,18964 14562,18922 14861,19122 " />
        <polygon
           id="polygon3661"
           points="15073,19358 15037,19393 14798,19199 14830,19161 14830,19161 14861,19122 15108,19322 " />
        <polygon
           id="polygon3663"
           points="15267,19552 15227,19583 15037,19393 15073,19358 15073,19358 15108,19322 15306,19520 " />
        <polygon
           id="polygon3665"
           points="15419,19742 15376,19768 15227,19583 15267,19552 15267,19552 15306,19520 15461,19715 " />
        <polygon
           id="polygon3667"
           points="15532,19926 15486,19946 15376,19768 15419,19742 15419,19742 15461,19715 15577,19905 " />
        <polygon
           id="polygon3669"
           points="15610,20103 15562,20117 15486,19946 15532,19926 15532,19926 15577,19905 15657,20088 " />
        <polygon
           id="polygon3671"
           points="15660,20271 15610,20278 15562,20117 15610,20103 15610,20103 15657,20088 15709,20263 " />
        <polygon
           id="polygon3673"
           points="15684,20428 15634,20429 15610,20278 15660,20271 15660,20271 15709,20263 15733,20426 " />
        <polygon
           id="polygon3675"
           points="15689,20572 15639,20567 15634,20429 15684,20428 15684,20428 15733,20426 15738,20576 " />
        <polygon
           id="polygon3677"
           points="15678,20703 15628,20693 15639,20567 15689,20572 15689,20572 15738,20576 15727,20712 " />
        <polygon
           id="polygon3679"
           points="15656,20818 15608,20803 15628,20693 15678,20703 15678,20703 15727,20712 15703,20832 " />
        <polygon
           id="polygon3681"
           points="15627,20916 15580,20898 15608,20803 15656,20818 15656,20818 15703,20832 15673,20933 " />
        <polygon
           id="polygon3683"
           points="15597,20995 15551,20974 15580,20898 15627,20916 15627,20916 15673,20933 15642,21015 " />
        <polygon
           id="polygon3685"
           points="15570,21054 15526,21029 15551,20974 15597,20995 15597,20995 15642,21015 15613,21078 " />
        <polygon
           id="polygon3687"
           points="15550,21090 15505,21066 15526,21029 15570,21054 15570,21054 15613,21078 15594,21113 " />
        <polygon
           id="polygon3689"
           points="15550,21090 15550,21090 15594,21113 15587,21126 15498,21079 15505,21066 " />
      </g>
      <g
         id="g3691"
         style="fill:#0066cc;stroke:none">
        <polygon
           id="polygon3693"
           points="17249,20961 17192,20941 17132,20922 17070,20905 17006,20889 16940,20875 16873,20861 16804,20850 16734,20840 16663,20831 16590,20824 16518,20818 16444,20814 16370,20812 16296,20811 16296,20811 16222,20812 16148,20814 16074,20818 16002,20824 15929,20831 15858,20840 15788,20850 15719,20861 15652,20875 15586,20889 15522,20905 15460,20922 15400,20941 15343,20961 15288,20982 15236,21004 15186,21028 15139,21052 15095,21078 15054,21104 15017,21131 14983,21159 14952,21188 14924,21217 14900,21247 14880,21277 14863,21308 14850,21339 14841,21370 14835,21401 14833,21433 14833,21433 14835,21465 14841,21496 14850,21527 14863,21558 14880,21589 14900,21619 14924,21649 14952,21678 14983,21707 15017,21735 15054,21762 15095,21788 15139,21814 15186,21838 15236,21862 15288,21884 15343,21905 15400,21925 15460,21944 15522,21961 15586,21977 15652,21991 15719,22005 15788,22016 15858,22026 15929,22035 16002,22042 16074,22048 16148,22052 16222,22054 16296,22055 16296,22055 16370,22054 16444,22052 16518,22048 16590,22042 16663,22035 16734,22026 16804,22016 16873,22005 16940,21991 17006,21977 17070,21961 17132,21944 17192,21925 17249,21905 17304,21884 17356,21862 17406,21838 17453,21814 17497,21788 17538,21762 17575,21735 17609,21707 17640,21678 17668,21649 17692,21619 17712,21589 17729,21558 17742,21527 17751,21496 17757,21465 17759,21433 17759,21433 17757,21401 17751,21370 17742,21339 17729,21308 17712,21277 17692,21247 17668,21217 17640,21188 17609,21159 17575,21131 17538,21104 17497,21078 17453,21052 17406,21028 17356,21004 17304,20982 " />
      </g>
      <g
         id="g3695"
         style="fill:#000080;stroke:none">
        <polygon
           id="polygon3697"
           points="9916,17746 9916,17746 9136,17974 9119,17928 9101,17881 9887,17651 " />
        <polygon
           id="polygon3699"
           points="8425,18180 8404,18134 9101,17881 9119,17928 9119,17928 9136,17974 8445,18225 " />
        <polygon
           id="polygon3701"
           points="7815,18451 7791,18406 8404,18134 8425,18180 8425,18180 8445,18225 7838,18495 " />
        <polygon
           id="polygon3703"
           points="7282,18738 7254,18696 7791,18406 7815,18451 7815,18451 7838,18495 7309,18779 " />
        <polygon
           id="polygon3705"
           points="6823,19037 6791,18997 7254,18696 7282,18738 7282,18738 7309,18779 6854,19076 " />
        <polygon
           id="polygon3707"
           points="6431,19347 6396,19310 6791,18997 6823,19037 6823,19037 6854,19076 6465,19383 " />
        <polygon
           id="polygon3709"
           points="6103,19662 6064,19629 6396,19310 6431,19347 6431,19347 6465,19383 6141,19694 " />
        <polygon
           id="polygon3711"
           points="5832,19981 5790,19952 6064,19629 6103,19662 6103,19662 6141,19694 5873,20009 " />
        <polygon
           id="polygon3713"
           points="5615,20300 5570,20276 5790,19952 5832,19981 5832,19981 5873,20009 5659,20323 " />
        <polygon
           id="polygon3715"
           points="5445,20615 5398,20595 5570,20276 5615,20300 5615,20300 5659,20323 5491,20634 " />
        <polygon
           id="polygon3717"
           points="5318,20924 5270,20909 5398,20595 5445,20615 5445,20615 5491,20634 5365,20938 " />
        <polygon
           id="polygon3719"
           points="5228,21222 5178,21212 5270,20909 5318,20924 5318,20924 5365,20938 5277,21231 " />
        <polygon
           id="polygon3721"
           points="5171,21508 5121,21502 5178,21212 5228,21222 5228,21222 5277,21231 5220,21513 " />
        <polygon
           id="polygon3723"
           points="5142,21777 5092,21775 5121,21502 5171,21508 5171,21508 5220,21513 5191,21778 " />
        <polygon
           id="polygon3725"
           points="5135,22027 5085,22029 5092,21775 5142,21777 5142,21777 5191,21778 5184,22024 " />
        <polygon
           id="polygon3727"
           points="5145,22254 5095,22259 5085,22029 5135,22027 5135,22027 5184,22024 5194,22248 " />
        <polygon
           id="polygon3729"
           points="5168,22455 5118,22463 5095,22259 5145,22254 5145,22254 5194,22248 5217,22446 " />
        <polygon
           id="polygon3731"
           points="5198,22626 5149,22637 5118,22463 5168,22455 5168,22455 5217,22446 5246,22614 " />
        <polygon
           id="polygon3733"
           points="5230,22766 5181,22779 5149,22637 5198,22626 5198,22626 5246,22614 5278,22752 " />
        <polygon
           id="polygon3735"
           points="5259,22869 5211,22884 5181,22779 5230,22766 5230,22766 5278,22752 5306,22853 " />
        <polygon
           id="polygon3737"
           points="5280,22933 5233,22951 5211,22884 5259,22869 5259,22869 5306,22853 5326,22914 " />
        <polygon
           id="polygon3739"
           points="5280,22933 5280,22933 5326,22914 5335,22937 5242,22974 5233,22951 " />
      </g>
      <g
         id="g3741"
         style="fill:#0066cc;stroke:none">
        <polygon
           id="polygon3743"
           points="5602,22914 5542,22894 5480,22875 5415,22858 5348,22842 5279,22828 5209,22814 5137,22803 5063,22793 4989,22784 4913,22777 4837,22771 4760,22767 4683,22765 4605,22764 4605,22764 4527,22765 4450,22767 4373,22771 4297,22777 4221,22784 4147,22793 4073,22803 4001,22814 3931,22828 3862,22842 3795,22858 3730,22875 3668,22894 3608,22914 3550,22935 3495,22957 3443,22981 3394,23005 3348,23031 3306,23057 3266,23084 3230,23112 3198,23141 3169,23170 3144,23200 3123,23230 3105,23261 3092,23292 3082,23323 3076,23354 3074,23386 3074,23386 3076,23418 3082,23449 3092,23480 3105,23511 3123,23542 3144,23572 3169,23602 3198,23631 3230,23660 3266,23688 3306,23715 3348,23741 3394,23767 3443,23791 3495,23815 3550,23837 3608,23858 3668,23878 3730,23897 3795,23914 3862,23930 3931,23944 4001,23958 4073,23969 4147,23979 4221,23988 4297,23995 4373,24001 4450,24005 4527,24007 4605,24008 4605,24008 4683,24007 4760,24005 4837,24001 4913,23995 4989,23988 5063,23979 5137,23969 5209,23958 5279,23944 5348,23930 5415,23914 5480,23897 5542,23878 5602,23858 5660,23837 5715,23815 5767,23791 5816,23767 5862,23741 5904,23715 5944,23688 5980,23660 6012,23631 6041,23602 6066,23572 6087,23542 6105,23511 6118,23480 6128,23449 6134,23418 6136,23386 6136,23386 6134,23354 6128,23323 6118,23292 6105,23261 6087,23230 6066,23200 6041,23170 6012,23141 5980,23112 5944,23084 5904,23057 5862,23031 5816,23005 5767,22981 5715,22957 5660,22935 " />
        <polygon
           id="polygon3745"
           points="11572,9887 11494,9736 11413,9593 11329,9461 11242,9339 11153,9228 11062,9128 10968,9039 10873,8961 10776,8895 10678,8841 10579,8799 10479,8768 10379,8750 10278,8744 10278,8744 10177,8750 10077,8768 9977,8799 9878,8841 9780,8895 9683,8961 9588,9039 9494,9128 9403,9228 9314,9339 9227,9461 9143,9593 9062,9736 8984,9887 8909,10048 8838,10218 8770,10396 8707,10582 8647,10776 8592,10976 8541,11183 8494,11396 8452,11614 8415,11837 8382,12064 8354,12295 8332,12529 8314,12765 8301,13004 8294,13243 8291,13483 8291,13483 8294,13723 8301,13962 8314,14201 8332,14437 8354,14671 8382,14902 8415,15129 8452,15352 8494,15570 8541,15783 8592,15990 8647,16190 8707,16384 8770,16570 8838,16748 8909,16918 8984,17079 9062,17230 9143,17373 9227,17505 9314,17627 9403,17738 9494,17838 9588,17927 9683,18005 9780,18071 9878,18125 9977,18167 10077,18198 10177,18216 10278,18222 10278,18222 10379,18216 10479,18198 10579,18167 10678,18125 10776,18071 10873,18005 10968,17927 11062,17838 11153,17738 11242,17627 11329,17505 11413,17373 11494,17230 11572,17079 11647,16918 11718,16748 11786,16570 11849,16384 11909,16190 11964,15990 12015,15783 12062,15570 12104,15352 12141,15129 12174,14902 12202,14671 12224,14437 12242,14201 12255,13962 12262,13723 12265,13483 12265,13483 12262,13243 12255,13004 12242,12765 12224,12529 12202,12295 12174,12064 12141,11837 12104,11614 12062,11396 12015,11183 11964,10976 11909,10776 11849,10582 11786,10396 11718,10218 11647,10048 " />
        <polygon
           id="polygon3747"
           points="12374,3139 12247,3050 12115,2967 11977,2890 11836,2818 11690,2753 11541,2694 11388,2642 11233,2596 11075,2558 10915,2526 10753,2501 10590,2483 10426,2473 10262,2469 10262,2469 10098,2473 9934,2483 9771,2501 9609,2526 9449,2558 9291,2596 9136,2642 8983,2694 8834,2753 8688,2818 8547,2890 8409,2967 8277,3050 8150,3139 8028,3234 7911,3333 7801,3438 7698,3547 7600,3660 7510,3778 7426,3899 7350,4024 7282,4152 7221,4283 7168,4416 7123,4551 7085,4689 7056,4827 7036,4967 7023,5107 7019,5248 7019,5248 7023,5389 7036,5529 7056,5669 7085,5807 7123,5945 7168,6080 7221,6213 7282,6344 7350,6472 7426,6597 7510,6718 7600,6836 7698,6949 7801,7058 7911,7163 8028,7262 8150,7357 8277,7446 8409,7529 8547,7606 8688,7678 8834,7743 8983,7802 9136,7854 9291,7900 9449,7938 9609,7970 9771,7995 9934,8013 10098,8023 10262,8027 10262,8027 10426,8023 10590,8013 10753,7995 10915,7970 11075,7938 11233,7900 11388,7854 11541,7802 11690,7743 11836,7678 11977,7606 12115,7529 12247,7446 12374,7357 12496,7262 12613,7163 12723,7058 12826,6949 12924,6836 13014,6718 13098,6597 13174,6472 13242,6344 13303,6213 13356,6080 13401,5945 13439,5807 13468,5669 13488,5529 13501,5389 13505,5248 13505,5248 13501,5107 13488,4967 13468,4827 13439,4689 13401,4551 13356,4416 13303,4283 13242,4152 13174,4024 13098,3899 13014,3778 12924,3660 12826,3547 12723,3438 12613,3333 12496,3234 " />
      </g>
    </g>
    <g
       id="g5828"
       transform="matrix(0.0194859,0,0,0.0194859,903.36707,417.03502)"
       style="fill:#009a00;fill-opacity:1">
      <g
         id="g5742"
         style="fill:#009a00;fill-opacity:1;stroke:none">
        <polygon
           id="polygon5744"
           points="10297,8487 10281,8535 10264,8582 9450,8348 9477,8251 9477,8251 "
           style="fill:#009a00;fill-opacity:1" />
        <polygon
           id="polygon5746"
           points="10264,8582 10281,8535 10281,8535 10297,8487 11041,8747 11022,8794 11002,8840 "
           style="fill:#009a00;fill-opacity:1" />
        <polygon
           id="polygon5748"
           points="11002,8840 11022,8794 11022,8794 11041,8747 11712,9028 11690,9073 11667,9117 "
           style="fill:#009a00;fill-opacity:1" />
        <polygon
           id="polygon5750"
           points="11667,9117 11690,9073 11690,9073 11712,9028 12314,9326 12289,9370 12263,9413 "
           style="fill:#009a00;fill-opacity:1" />
        <polygon
           id="polygon5752"
           points="12263,9413 12289,9370 12289,9370 12314,9326 12851,9638 12823,9680 12794,9721 "
           style="fill:#009a00;fill-opacity:1" />
        <polygon
           id="polygon5754"
           points="12794,9721 12823,9680 12823,9680 12851,9638 13326,9963 13295,10003 13263,10042 "
           style="fill:#009a00;fill-opacity:1" />
        <polygon
           id="polygon5756"
           points="13263,10042 13295,10003 13295,10003 13326,9963 13743,10296 13709,10333 13674,10369 "
           style="fill:#009a00;fill-opacity:1" />
        <polygon
           id="polygon5758"
           points="13674,10369 13709,10333 13709,10333 13743,10296 14106,10634 14070,10668 14033,10701 "
           style="fill:#009a00;fill-opacity:1" />
        <polygon
           id="polygon5760"
           points="14033,10701 14070,10668 14070,10668 14106,10634 14418,10974 14379,11005 14339,11035 "
           style="fill:#009a00;fill-opacity:1" />
        <polygon
           id="polygon5762"
           points="14339,11035 14379,11005 14379,11005 14418,10974 14683,11313 14642,11341 14600,11368 "
           style="fill:#009a00;fill-opacity:1" />
        <polygon
           id="polygon5764"
           points="14600,11368 14642,11341 14642,11341 14683,11313 14904,11648 14861,11673 14817,11697 "
           style="fill:#009a00;fill-opacity:1" />
        <polygon
           id="polygon5766"
           points="14817,11697 14861,11673 14861,11673 14904,11648 15086,11977 15041,11998 14995,12018 "
           style="fill:#009a00;fill-opacity:1" />
        <polygon
           id="polygon5768"
           points="14995,12018 15041,11998 15041,11998 15086,11977 15232,12294 15186,12312 15139,12329 "
           style="fill:#009a00;fill-opacity:1" />
        <polygon
           id="polygon5770"
           points="15139,12329 15186,12312 15186,12312 15232,12294 15345,12598 15298,12613 15250,12627 "
           style="fill:#009a00;fill-opacity:1" />
        <polygon
           id="polygon5772"
           points="15250,12627 15298,12613 15298,12613 15345,12598 15429,12886 15381,12897 15332,12907 "
           style="fill:#009a00;fill-opacity:1" />
        <polygon
           id="polygon5774"
           points="15332,12907 15381,12897 15381,12897 15429,12886 15489,13154 15440,13162 15390,13169 "
           style="fill:#009a00;fill-opacity:1" />
        <polygon
           id="polygon5776"
           points="15390,13169 15440,13162 15440,13162 15489,13154 15527,13399 15478,13404 15428,13408 "
           style="fill:#009a00;fill-opacity:1" />
        <polygon
           id="polygon5778"
           points="15428,13408 15478,13404 15478,13404 15527,13399 15548,13618 15499,13620 15449,13621 "
           style="fill:#009a00;fill-opacity:1" />
        <polygon
           id="polygon5780"
           points="15449,13621 15499,13620 15499,13620 15548,13618 15555,13808 15506,13808 15456,13807 "
           style="fill:#009a00;fill-opacity:1" />
        <polygon
           id="polygon5782"
           points="15456,13807 15506,13808 15506,13808 15555,13808 15552,13966 15503,13963 15453,13959 "
           style="fill:#009a00;fill-opacity:1" />
        <polygon
           id="polygon5784"
           points="15453,13959 15503,13963 15503,13963 15552,13966 15543,14091 15494,14084 15444,14076 "
           style="fill:#009a00;fill-opacity:1" />
        <polygon
           id="polygon5786"
           points="15444,14076 15494,14084 15494,14084 15543,14091 15530,14177 15482,14166 15433,14154 "
           style="fill:#009a00;fill-opacity:1" />
        <polygon
           id="polygon5788"
           points="15530,14177 15520,14219 15423,14196 15433,14154 15482,14166 15482,14166 "
           style="fill:#009a00;fill-opacity:1" />
      </g>
      <g
         id="g5790"
         style="fill:#009a00;fill-opacity:1;stroke:none">
        <polygon
           id="polygon5792"
           points="15917,13672 15879,13651 15839,13632 15798,13614 15757,13598 15714,13583 15671,13571 15626,13560 15582,13552 15536,13545 15491,13540 15445,13537 15399,13536 15399,13536 15353,13537 15307,13540 15262,13545 15216,13552 15172,13560 15127,13571 15084,13583 15041,13598 15000,13614 14959,13632 14919,13651 14881,13672 14844,13695 14808,13720 14774,13745 14742,13773 14711,13801 14682,13831 14655,13862 14629,13894 14606,13928 14585,13962 14566,13997 14548,14033 14534,14069 14521,14106 14511,14144 14502,14182 14497,14220 14493,14258 14492,14297 14492,14297 14493,14336 14497,14374 14502,14412 14511,14450 14521,14488 14534,14525 14548,14561 14566,14597 14585,14632 14606,14666 14629,14700 14655,14732 14682,14763 14711,14793 14742,14821 14774,14849 14808,14874 14844,14899 14881,14922 14919,14943 14959,14962 15000,14980 15041,14996 15084,15011 15127,15023 15172,15034 15216,15042 15262,15049 15307,15054 15353,15057 15399,15058 15399,15058 15445,15057 15491,15054 15536,15049 15582,15042 15626,15034 15671,15023 15714,15011 15757,14996 15798,14980 15839,14962 15879,14943 15917,14922 15954,14899 15990,14874 16024,14849 16056,14821 16087,14793 16116,14763 16143,14732 16169,14700 16192,14666 16213,14632 16232,14597 16250,14561 16264,14525 16277,14488 16287,14450 16296,14412 16301,14374 16305,14336 16306,14297 16306,14297 16305,14258 16301,14220 16296,14182 16287,14144 16277,14106 16264,14069 16250,14033 16232,13997 16213,13962 16192,13928 16169,13894 16143,13862 16116,13831 16087,13801 16056,13773 16024,13745 15990,13720 15954,13695 "
           style="fill:#009a00;fill-opacity:1" />
      </g>
      <g
         id="g5794"
         style="fill:#009a00;fill-opacity:1;stroke:none">
        <polygon
           id="polygon5796"
           points="8968,17579 8968,17579 6467,26043 6372,26014 8873,17550 "
           style="fill:#009a00;fill-opacity:1" />
      </g>
      <g
         id="g5798"
         style="fill:#009a00;fill-opacity:1;stroke:none">
        <polygon
           id="polygon5800"
           points="6858,24981 6780,24959 6699,24938 6616,24919 6531,24902 6444,24887 6356,24874 6265,24863 6174,24853 6082,24846 5989,24841 5896,24838 5802,24837 5802,24837 5708,24838 5615,24841 5522,24846 5430,24853 5339,24863 5248,24874 5160,24887 5073,24902 4988,24919 4905,24938 4824,24959 4746,24981 4670,25005 4598,25031 4528,25058 4462,25087 4399,25117 4340,25148 4284,25181 4233,25215 4185,25250 4142,25286 4103,25323 4068,25361 4038,25400 4012,25439 3991,25478 3974,25518 3962,25559 3955,25599 3953,25640 3953,25640 3955,25681 3962,25721 3974,25762 3991,25802 4012,25841 4038,25880 4068,25919 4103,25957 4142,25994 4185,26030 4233,26065 4284,26099 4340,26132 4399,26163 4462,26193 4528,26222 4598,26249 4670,26275 4746,26299 4824,26321 4905,26342 4988,26361 5073,26378 5160,26393 5248,26406 5339,26417 5430,26427 5522,26434 5615,26439 5708,26442 5802,26443 5802,26443 5896,26442 5989,26439 6082,26434 6174,26427 6265,26417 6356,26406 6444,26393 6531,26378 6616,26361 6699,26342 6780,26321 6858,26299 6934,26275 7006,26249 7076,26222 7142,26193 7205,26163 7264,26132 7320,26099 7371,26065 7419,26030 7462,25994 7501,25957 7536,25919 7566,25880 7592,25841 7613,25802 7630,25762 7642,25721 7649,25681 7651,25640 7651,25640 7649,25599 7642,25559 7630,25518 7613,25478 7592,25439 7566,25400 7536,25361 7501,25323 7462,25286 7419,25250 7371,25215 7320,25181 7264,25148 7205,25117 7142,25087 7076,25058 7006,25031 6934,25005 "
           style="fill:#009a00;fill-opacity:1" />
      </g>
      <g
         id="g5802"
         style="fill:#009a00;fill-opacity:1;stroke:none">
        <polygon
           id="polygon5804"
           points="9962,17309 9962,17309 12787,23440 12696,23481 9871,17350 "
           style="fill:#009a00;fill-opacity:1" />
      </g>
      <g
         id="g5806"
         style="fill:#009a00;fill-opacity:1;stroke:none">
        <polygon
           id="polygon5808"
           points="14834,23378 14762,23362 14687,23348 14610,23334 14531,23323 14451,23312 14369,23303 14285,23295 14201,23289 14115,23283 14029,23280 13943,23278 13856,23277 13856,23277 13769,23278 13683,23280 13597,23283 13511,23289 13427,23295 13343,23303 13261,23312 13181,23323 13102,23334 13025,23348 12950,23362 12878,23378 12808,23395 12741,23413 12676,23432 12615,23452 12557,23473 12502,23495 12451,23518 12403,23542 12359,23566 12319,23591 12283,23617 12251,23644 12223,23671 12199,23698 12179,23726 12164,23754 12153,23782 12146,23811 12144,23839 12144,23839 12146,23867 12153,23896 12164,23924 12179,23952 12199,23980 12223,24007 12251,24034 12283,24061 12319,24087 12359,24112 12403,24136 12451,24160 12502,24183 12557,24205 12615,24226 12676,24246 12741,24265 12808,24283 12878,24300 12950,24316 13025,24330 13102,24344 13181,24355 13261,24366 13343,24375 13427,24383 13511,24389 13597,24395 13683,24398 13769,24400 13856,24401 13856,24401 13943,24400 14029,24398 14115,24395 14201,24389 14285,24383 14369,24375 14451,24366 14531,24355 14610,24344 14687,24330 14762,24316 14834,24300 14904,24283 14971,24265 15036,24246 15097,24226 15155,24205 15210,24183 15261,24160 15309,24136 15353,24112 15393,24087 15429,24061 15461,24034 15489,24007 15513,23980 15533,23952 15548,23924 15559,23896 15566,23867 15568,23839 15568,23839 15566,23811 15559,23782 15548,23754 15533,23726 15513,23698 15489,23671 15461,23644 15429,23617 15393,23591 15353,23566 15309,23542 15261,23518 15210,23495 15155,23473 15097,23452 15036,23432 14971,23413 14904,23395 "
           style="fill:#009a00;fill-opacity:1" />
      </g>
      <g
         id="g5810"
         style="fill:#009a00;fill-opacity:1;stroke:none">
        <polygon
           id="polygon5812"
           points="5717,11050 5709,11051 5701,11051 5692,11050 5684,11048 5677,11044 5665,11033 5704,11002 5675,10960 9149,8538 9206,8621 9206,8621 5732,11043 5732,11043 5725,11047 "
           style="fill:#009a00;fill-opacity:1" />
        <polygon
           id="polygon5814"
           points="5665,11033 3047,7800 3124,7737 5742,10970 5704,11002 5704,11002 "
           style="fill:#009a00;fill-opacity:1" />
      </g>
      <g
         id="g5816"
         style="fill:#009a00;fill-opacity:1;stroke:none">
        <polygon
           id="polygon5818"
           points="3210,6603 3165,6576 3119,6551 3072,6529 3023,6508 2973,6490 2923,6474 2871,6461 2819,6450 2767,6441 2714,6435 2660,6431 2607,6430 2607,6430 2554,6431 2500,6435 2447,6441 2395,6450 2343,6461 2291,6474 2241,6490 2191,6508 2142,6529 2095,6551 2049,6576 2004,6603 1961,6632 1920,6663 1880,6696 1842,6730 1807,6767 1773,6805 1741,6844 1712,6885 1685,6927 1660,6971 1637,7015 1618,7061 1600,7107 1586,7154 1574,7202 1564,7250 1557,7298 1553,7347 1552,7396 1552,7396 1553,7445 1557,7494 1564,7542 1574,7590 1586,7638 1600,7685 1618,7731 1637,7777 1660,7821 1685,7865 1712,7907 1741,7948 1773,7987 1807,8025 1842,8062 1880,8096 1920,8129 1961,8160 2004,8189 2049,8216 2095,8241 2142,8263 2191,8284 2241,8302 2291,8318 2343,8331 2395,8342 2447,8351 2500,8357 2554,8361 2607,8362 2607,8362 2660,8361 2714,8357 2767,8351 2819,8342 2871,8331 2923,8318 2973,8302 3023,8284 3072,8263 3119,8241 3165,8216 3210,8189 3253,8160 3294,8129 3334,8096 3372,8062 3407,8025 3441,7987 3473,7948 3502,7907 3529,7865 3554,7821 3577,7777 3596,7731 3614,7685 3628,7638 3640,7590 3650,7542 3657,7494 3661,7445 3662,7396 3662,7396 3661,7347 3657,7298 3650,7250 3640,7202 3628,7154 3614,7107 3596,7061 3577,7015 3554,6971 3529,6927 3502,6885 3473,6844 3441,6805 3407,6767 3372,6730 3334,6696 3294,6663 3253,6632 "
           style="fill:#009a00;fill-opacity:1" />
        <polygon
           id="polygon5820"
           points="10556,9082 10475,8947 10392,8823 10306,8710 10218,8608 10128,8517 10036,8438 9943,8370 9848,8315 9753,8272 9657,8241 9560,8222 9463,8216 9463,8216 9366,8222 9269,8241 9173,8272 9078,8315 8983,8370 8890,8438 8798,8517 8708,8608 8620,8710 8534,8823 8451,8947 8370,9082 8291,9227 8216,9381 8144,9546 8076,9719 8011,9900 7949,10090 7892,10287 7839,10492 7790,10703 7745,10919 7704,11142 7668,11369 7637,11601 7610,11836 7588,12075 7571,12315 7559,12558 7551,12802 7549,13047 7549,13047 7551,13292 7559,13536 7571,13779 7588,14019 7610,14258 7637,14493 7668,14725 7704,14952 7745,15175 7790,15391 7839,15602 7892,15807 7949,16004 8011,16194 8076,16375 8144,16548 8216,16713 8291,16867 8370,17012 8451,17147 8534,17271 8620,17384 8708,17486 8798,17577 8890,17656 8983,17724 9078,17779 9173,17822 9269,17853 9366,17872 9463,17878 9463,17878 9560,17872 9657,17853 9753,17822 9848,17779 9943,17724 10036,17656 10128,17577 10218,17486 10306,17384 10392,17271 10475,17147 10556,17012 10635,16867 10710,16713 10782,16548 10850,16375 10915,16194 10977,16004 11034,15807 11087,15602 11136,15391 11181,15175 11222,14952 11258,14725 11289,14493 11316,14258 11338,14019 11355,13779 11367,13536 11375,13292 11377,13047 11377,13047 11375,12802 11367,12558 11355,12315 11338,12075 11316,11836 11289,11601 11258,11369 11222,11142 11181,10919 11136,10703 11087,10492 11034,10287 10977,10090 10915,9900 10850,9719 10782,9546 10710,9381 10635,9227 "
           style="fill:#009a00;fill-opacity:1" />
        <polygon
           id="polygon5822"
           points="10774,2375 11315,2557 11804,2811 12233,3127 12593,3496 12877,3911 13074,4361 13178,4839 13179,5337 13074,5823 12872,6270 12585,6672 12221,7021 11791,7311 11304,7535 10772,7686 10204,7758 9611,7743 9611,7743 9026,7639 8485,7456 7996,7203 7567,6887 7207,6517 6923,6103 6726,5652 6622,5174 6622,4678 6726,4191 6928,3744 7215,3342 7579,2992 8009,2702 8496,2479 9028,2328 9596,2256 10190,2272 "
           style="fill:#009a00;fill-opacity:1" />
      </g>
    </g>
    <text
       xml:space="preserve"
       style="font-size:72px;font-style:normal;font-weight:bold;line-height:125%;letter-spacing:10px;word-spacing:0px;fill:#000000;fill-opacity:1;stroke:none;font-family:Sans;-inkscape-font-specification:Sans Bold"
       x="402.57141"
       y="734.07648"
       id="text6639"
       sodipodi:linespacing="125%"><tspan
         sodipodi:role="line"
         id="tspan6641"
         x="402.57141"
         y="734.07648"
         rotate="0 0 0 0">swows.org</tspan></text>
  </g>
</svg>
