<?xml version="1.0" encoding="UTF-8" standalone="no"?>
<!-- Created with Inkscape (http://www.inkscape.org/) -->

<svg
   xmlns:dc="http://purl.org/dc/elements/1.1/"
   xmlns:cc="http://creativecommons.org/ns#"
   xmlns:rdf="http://www.w3.org/1999/02/22-rdf-syntax-ns#"
   xmlns:svg="http://www.w3.org/2000/svg"
   xmlns="http://www.w3.org/2000/svg"
   xmlns:sodipodi="http://sodipodi.sourceforge.net/DTD/sodipodi-0.dtd"
   xmlns:inkscape="http://www.inkscape.org/namespaces/inkscape"
   width="744.09448819"
   height="1052.3622047"
   id="svg2"
   version="1.1"
   inkscape:version="0.48.2 r9819"
   sodipodi:docname="circles.svg">
  <defs
     id="defs4">
    <marker
       inkscape:stockid="Arrow2Lend"
       orient="auto"
       refY="0.0"
       refX="0.0"
       id="Arrow2Lend"
       style="overflow:visible;">
      <path
         id="path4927"
         style="font-size:12.0;fill-rule:evenodd;stroke-width:0.62500000;stroke-linejoin:round;"
         d="M 8.7185878,4.0337352 L -2.2072895,0.016013256 L 8.7185884,-4.0017078 C 6.9730900,-1.6296469 6.9831476,1.6157441 8.7185878,4.0337352 z "
         transform="scale(1.1) rotate(180) translate(1,0)" />
    </marker>
    <marker
       inkscape:stockid="Arrow2Lend"
       orient="auto"
       refY="0"
       refX="0"
       id="Arrow2Lend-0"
       style="overflow:visible">
      <path
         inkscape:connector-curvature="0"
         id="path4927-9"
         style="font-size:12px;fill-rule:evenodd;stroke-width:0.625;stroke-linejoin:round"
         d="M 8.7185878,4.0337352 -2.2072895,0.01601326 8.7185884,-4.0017078 c -1.7454984,2.3720609 -1.7354408,5.6174519 -6e-7,8.035443 z"
         transform="matrix(-1.1,0,0,-1.1,-1.1,0)" />
    </marker>
  </defs>
  <sodipodi:namedview
     id="base"
     pagecolor="#ffffff"
     bordercolor="#666666"
     borderopacity="1.0"
     inkscape:pageopacity="0.0"
     inkscape:pageshadow="2"
     inkscape:zoom="0.9899495"
     inkscape:cx="121.51509"
     inkscape:cy="545.58375"
     inkscape:document-units="px"
     inkscape:current-layer="layer1"
     showgrid="false"
     inkscape:window-width="1600"
     inkscape:window-height="876"
     inkscape:window-x="0"
     inkscape:window-y="24"
     inkscape:window-maximized="1" />
  <metadata
     id="metadata7">
    <rdf:RDF>
      <cc:Work
         rdf:about="">
        <dc:format>image/svg+xml</dc:format>
        <dc:type
           rdf:resource="http://purl.org/dc/dcmitype/StillImage" />
        <dc:title />
      </cc:Work>
    </rdf:RDF>
  </metadata>
  <g
     inkscape:label="Livello 1"
     inkscape:groupmode="layer"
     id="layer1">
    <rect
       style="opacity:0.98999999;fill:#ffffff;stroke:#000000;stroke-width:1;stroke-miterlimit:4;stroke-opacity:1;stroke-dasharray:none;stroke-dashoffset:0"
       id="rect6092"
       width="468.71078"
       height="205.06096"
       x="139.40105"
       y="596.60065" />
    <path
       sodipodi:type="arc"
       style="opacity:0.98999999;fill:#ffffff;stroke:#000000;stroke-width:2;stroke-miterlimit:4;stroke-opacity:1;stroke-dasharray:none;stroke-dashoffset:0"
       id="path4334-1"
       sodipodi:cx="557.09912"
       sodipodi:cy="160.90257"
       sodipodi:rx="101.52033"
       sodipodi:ry="32.829956"
       d="m 658.61945,160.90257 a 101.52033,32.829956 0 1 1 -203.04066,0 101.52033,32.829956 0 1 1 203.04066,0 z"
       transform="matrix(0.76484753,0,0,0.56380241,-273.52224,249.46708)" />
    <path
       sodipodi:type="arc"
       style="opacity:0.98999999;fill:#ffffff;stroke:#000000;stroke-width:2;stroke-miterlimit:4;stroke-opacity:1;stroke-dasharray:none;stroke-dashoffset:0"
       id="path4334-6"
       sodipodi:cx="557.09912"
       sodipodi:cy="160.90257"
       sodipodi:rx="101.52033"
       sodipodi:ry="32.829956"
       d="m 658.61945,160.90257 a 101.52033,32.829956 0 1 1 -203.04066,0 101.52033,32.829956 0 1 1 203.04066,0 z"
       transform="matrix(0.76484753,0,0,0.56380241,-138.20241,51.720844)" />
    <path
       sodipodi:type="arc"
       style="opacity:0.98999999;fill:#ffffff;stroke:#000000;stroke-width:2;stroke-miterlimit:4;stroke-opacity:1;stroke-dasharray:none;stroke-dashoffset:0"
       id="path4334-96"
       sodipodi:cx="557.09912"
       sodipodi:cy="160.90257"
       sodipodi:rx="101.52033"
       sodipodi:ry="32.829956"
       d="m 658.61945,160.90257 a 101.52033,32.829956 0 1 1 -203.04066,0 101.52033,32.829956 0 1 1 203.04066,0 z"
       transform="matrix(0.76484753,0,0,0.56380241,139.81289,-2.0609014)" />
    <path
       sodipodi:type="arc"
       style="opacity:0.98999999;fill:#ffffff;stroke:#000000;stroke-width:2;stroke-miterlimit:4;stroke-opacity:1;stroke-dasharray:none;stroke-dashoffset:0"
       id="path4334-9"
       sodipodi:cx="557.09912"
       sodipodi:cy="160.90257"
       sodipodi:rx="101.52033"
       sodipodi:ry="32.829956"
       d="m 658.61945,160.90257 a 101.52033,32.829956 0 1 1 -203.04066,0 101.52033,32.829956 0 1 1 203.04066,0 z"
       transform="matrix(0.76484753,0,0,0.56380241,151.0667,161.60411)" />
    <path
       sodipodi:type="arc"
       style="opacity:0.98999999;fill:#ffffff;stroke:#000000;stroke-width:2;stroke-miterlimit:4;stroke-opacity:1;stroke-dasharray:none;stroke-dashoffset:0"
       id="path4334"
       sodipodi:cx="557.09912"
       sodipodi:cy="160.90257"
       sodipodi:rx="101.52033"
       sodipodi:ry="32.829956"
       d="m 658.61945,160.90257 a 101.52033,32.829956 0 1 1 -203.04066,0 101.52033,32.829956 0 1 1 203.04066,0 z"
       transform="matrix(0.76484753,0,0,0.56380241,149.78592,246.5458)" />
    <path
       sodipodi:type="star"
       style="opacity:0.98999999;fill:#ffffff;stroke:#000000;stroke-width:2;stroke-miterlimit:4;stroke-opacity:1;stroke-dasharray:none;stroke-dashoffset:0"
       id="path4276-0-7"
       sodipodi:sides="20"
       sodipodi:cx="-511.13718"
       sodipodi:cy="54.331474"
       sodipodi:r1="63.384796"
       sodipodi:r2="79.230995"
       sodipodi:arg1="0.33787819"
       sodipodi:arg2="0.49495782"
       inkscape:flatsided="false"
       inkscape:rounded="0"
       inkscape:randomized="0"
       d="m -451.33615,75.342647 9.92136,16.623117 -19.34104,0.828057 4.29895,18.875389 -18.65031,-5.18918 -1.74427,19.28001 -16.13395,-10.69846 -7.61676,17.79737 -12.03828,-15.16051 -12.74366,14.5726 -6.76424,-18.13854 -16.62312,9.92136 -0.82805,-19.34104 -18.87539,4.29895 5.18918,-18.650305 -19.28002,-1.744278 10.69847,-16.133946 -17.79737,-7.616757 15.16051,-12.038288 -14.5726,-12.743657 18.13853,-6.764237 -9.92135,-16.623117 19.34103,-0.828057 -4.29894,-18.8753916 18.6503,5.1891797 1.74428,-19.2800111 16.13395,10.6984637 7.61675,-17.7973687 12.03829,15.1605071 12.74366,-14.5725951 6.76424,18.1385337 16.62311,-9.9213557 0.82806,19.3410357 18.87539,-4.29894405 -5.18918,18.65030135 19.28001,1.744278 -10.69846,16.133946 17.79737,7.616758 -15.16051,12.038288 14.5726,12.743656 z"
       transform="matrix(0.89812101,0,0,0.42819136,963.12918,398.76274)"
       inkscape:connector-avoid="true" />
    <path
       sodipodi:type="star"
       style="opacity:0.98999999;fill:#ffffff;stroke:#000000;stroke-width:2;stroke-miterlimit:4;stroke-opacity:1;stroke-dasharray:none;stroke-dashoffset:0"
       id="path4276-0-9"
       sodipodi:sides="20"
       sodipodi:cx="-511.13718"
       sodipodi:cy="54.331474"
       sodipodi:r1="63.384796"
       sodipodi:r2="79.230995"
       sodipodi:arg1="0.33787819"
       sodipodi:arg2="0.49495782"
       inkscape:flatsided="false"
       inkscape:rounded="0"
       inkscape:randomized="0"
       d="m -451.33615,75.342647 9.92136,16.623117 -19.34104,0.828057 4.29895,18.875389 -18.65031,-5.18918 -1.74427,19.28001 -16.13395,-10.69846 -7.61676,17.79737 -12.03828,-15.16051 -12.74366,14.5726 -6.76424,-18.13854 -16.62312,9.92136 -0.82805,-19.34104 -18.87539,4.29895 5.18918,-18.650305 -19.28002,-1.744278 10.69847,-16.133946 -17.79737,-7.616757 15.16051,-12.038288 -14.5726,-12.743657 18.13853,-6.764237 -9.92135,-16.623117 19.34103,-0.828057 -4.29894,-18.8753916 18.6503,5.1891797 1.74428,-19.2800111 16.13395,10.6984637 7.61675,-17.7973687 12.03829,15.1605071 12.74366,-14.5725951 6.76424,18.1385337 16.62311,-9.9213557 0.82806,19.3410357 18.87539,-4.29894405 -5.18918,18.65030135 19.28001,1.744278 -10.69846,16.133946 17.79737,7.616758 -15.16051,12.038288 14.5726,12.743656 z"
       transform="matrix(0.89812101,0,0,0.42819136,706.55041,409.87442)"
       inkscape:connector-avoid="true" />
    <rect
       style="opacity:0.98999999;fill:#ffffff;stroke:#000000;stroke-width:2;stroke-miterlimit:4;stroke-opacity:1;stroke-dasharray:none;stroke-dashoffset:0"
       id="rect4307"
       width="111.11678"
       height="47.477169"
       x="255.54829"
       y="318.82901"
       ry="0"
       inkscape:connector-avoid="true" />
    <path
       sodipodi:type="star"
       style="opacity:0.98999999;fill:#ffffff;stroke:#000000;stroke-width:2;stroke-miterlimit:4;stroke-opacity:1;stroke-dasharray:none;stroke-dashoffset:0"
       id="path4276-0"
       sodipodi:sides="20"
       sodipodi:cx="-511.13718"
       sodipodi:cy="54.331474"
       sodipodi:r1="63.384796"
       sodipodi:r2="79.230995"
       sodipodi:arg1="0.33787819"
       sodipodi:arg2="0.49495782"
       inkscape:flatsided="false"
       inkscape:rounded="0"
       inkscape:randomized="0"
       d="m -451.33615,75.342647 9.92136,16.623117 -19.34104,0.828057 4.29895,18.875389 -18.65031,-5.18918 -1.74427,19.28001 -16.13395,-10.69846 -7.61676,17.79737 -12.03828,-15.16051 -12.74366,14.5726 -6.76424,-18.13854 -16.62312,9.92136 -0.82805,-19.34104 -18.87539,4.29895 5.18918,-18.650305 -19.28002,-1.744278 10.69847,-16.133946 -17.79737,-7.616757 15.16051,-12.038288 -14.5726,-12.743657 18.13853,-6.764237 -9.92135,-16.623117 19.34103,-0.828057 -4.29894,-18.8753916 18.6503,5.1891797 1.74428,-19.2800111 16.13395,10.6984637 7.61675,-17.7973687 12.03829,15.1605071 12.74366,-14.5725951 6.76424,18.1385337 16.62311,-9.9213557 0.82806,19.3410357 18.87539,-4.29894405 -5.18918,18.65030135 19.28001,1.744278 -10.69846,16.133946 17.79737,7.616758 -15.16051,12.038288 14.5726,12.743656 z"
       transform="matrix(0.89812101,0,0,0.42819136,840.9007,226.89467)" />
    <path
       sodipodi:type="arc"
       style="fill:#ffffff;stroke:#000000;stroke-width:2.54218707;stroke-miterlimit:4;stroke-opacity:1;stroke-dasharray:none;stroke-dashoffset:0"
       id="path2985"
       sodipodi:cx="210.61681"
       sodipodi:cy="404.60187"
       sodipodi:rx="28.284271"
       sodipodi:ry="15.404826"
       d="m 238.90108,404.60187 a 28.284271,15.404826 0 1 1 -56.56855,0 28.284271,15.404826 0 1 1 56.56855,0 z"
       transform="matrix(2.1281608,0,0,1.8176931,-57.835051,-214.66126)" />
    <text
       xml:space="preserve"
       style="font-size:40px;font-style:normal;font-weight:normal;line-height:125%;letter-spacing:0px;word-spacing:0px;fill:#000000;fill-opacity:1;stroke:none;font-family:Sans"
       x="338.4823"
       y="524.47626"
       id="text3755"
       sodipodi:linespacing="125%"><tspan
         sodipodi:role="line"
         id="tspan3757"
         x="338.4823"
         y="524.47626"
         style="font-size:12px">swi:InputDataset</tspan></text>
    <text
       xml:space="preserve"
       style="font-size:40px;font-style:normal;font-weight:normal;line-height:125%;letter-spacing:0px;word-spacing:0px;fill:#000000;fill-opacity:1;stroke:none;font-family:Sans"
       x="213.92517"
       y="438.21793"
       id="text3755-5"
       sodipodi:linespacing="125%"><tspan
         sodipodi:role="line"
         id="tspan3757-2"
         x="213.92517"
         y="438.21793"
         style="font-size:12px;font-style:italic;-inkscape-font-specification:Sans Italic">blank node</tspan></text>
    <text
       xml:space="preserve"
       style="font-size:40px;font-style:normal;font-weight:normal;line-height:125%;letter-spacing:0px;word-spacing:0px;fill:#000000;fill-opacity:1;stroke:none;font-family:Sans"
       x="273.66122"
       y="345.74835"
       id="text3755-2"
       sodipodi:linespacing="125%"><tspan
         sodipodi:role="line"
         x="273.66122"
         y="345.74835"
         style="font-size:12px"
         id="tspan3066">ci:circleAges</tspan></text>
    <text
       xml:space="preserve"
       style="font-size:40px;font-style:normal;font-weight:normal;line-height:125%;letter-spacing:0px;word-spacing:0px;fill:#000000;fill-opacity:1;stroke:none;font-family:Sans"
       x="352.40558"
       y="252.52141"
       id="text3755-2-2"
       sodipodi:linespacing="125%"><tspan
         sodipodi:role="line"
         x="352.40558"
         y="252.52141"
         style="font-size:12px"
         id="tspan3066-8">ci:circles</tspan></text>
    <text
       xml:space="preserve"
       style="font-size:40px;font-style:normal;font-weight:normal;line-height:125%;letter-spacing:0px;word-spacing:0px;fill:#000000;fill-opacity:1;stroke:none;font-family:Sans"
       x="503.54767"
       y="341.4313"
       id="text3755-5-1"
       sodipodi:linespacing="125%"><tspan
         sodipodi:role="line"
         id="tspan3757-2-7"
         x="503.54767"
         y="341.4313"
         style="font-size:12px;font-style:normal;-inkscape-font-specification:Sans">&lt;circleAgesDel.sparql&gt;</tspan></text>
    <text
       xml:space="preserve"
       style="font-size:40px;font-style:normal;font-weight:normal;line-height:125%;letter-spacing:0px;word-spacing:0px;fill:#000000;fill-opacity:1;stroke:none;font-family:Sans"
       x="472.23297"
       y="425.23337"
       id="text3755-5-7"
       sodipodi:linespacing="125%"><tspan
         sodipodi:role="line"
         id="tspan3757-2-1"
         x="472.23297"
         y="425.23337"
         style="font-size:12px;font-style:italic;-inkscape-font-specification:Sans Italic">blank node</tspan></text>
    <text
       xml:space="preserve"
       style="font-size:40px;font-style:normal;font-weight:normal;line-height:125%;letter-spacing:0px;word-spacing:0px;fill:#000000;fill-opacity:1;stroke:none;font-family:Sans"
       x="306.71201"
       y="68.017342"
       id="text3755-8"
       sodipodi:linespacing="125%"><tspan
         sodipodi:role="line"
         id="tspan3757-5"
         x="306.71201"
         y="68.017342"
         style="font-size:12px">swi:OutputDataset</tspan></text>
    <path
       style="fill:#000000;fill-opacity:1;fill-rule:evenodd;stroke:none"
       d="m 292.41807,95.67633 7.57953,-3.39502 c 0,0 25.65767,-8.904746 62.51141,-8.904746 36.85372,0 60.66097,7.88474 60.66097,7.88474 l 9.12157,3.395006 -0.61681,-2.767896 0,-20.19512 c 0,-3.47367 0.0856,-11.09247 -8.39572,-19.6542 -8.48124,-8.56172 -28.23841,-18.08406 -61.49586,-25.51438 l 0.1089,1.89329 -0.1089,-1.87074 c -66.52251,14.86233 -68.36508,38.28464 -68.36508,45.14603 l -1.30842,20.19512 z m 2.60776,-3.835636 1.12776,-20.29678 c 0,-6.75696 5.93173,-30.2137 65.7012,-44.17993 29.4101,6.87612 49.73852,16.21959 57.16543,23.71699 7.66014,7.7328 9.66353,16.77803 9.66353,20.25169 l -0.61681,19.45576 c -10.8457,-2.70268 -38.87006,-8.81725 -66.61089,-8.81725 -27.82002,0 -55.61458,7.1681 -66.43022,9.86952 z"
       id="path4973-5"
       sodipodi:nodetypes="ccsccccscccccccccsccsc"
       inkscape:connector-curvature="0" />
    <path
       sodipodi:type="star"
       style="opacity:0.98999999;fill:#ffffff;stroke:#000000;stroke-width:2;stroke-miterlimit:4;stroke-opacity:1;stroke-dasharray:none;stroke-dashoffset:0"
       id="path4276"
       sodipodi:sides="20"
       sodipodi:cx="-511.13718"
       sodipodi:cy="54.331474"
       sodipodi:r1="63.384796"
       sodipodi:r2="79.230995"
       sodipodi:arg1="0.33787819"
       sodipodi:arg2="0.49495782"
       inkscape:flatsided="false"
       inkscape:rounded="0"
       inkscape:randomized="0"
       d="m -451.33615,75.342647 9.92136,16.623117 -19.34104,0.828057 4.29895,18.875389 -18.65031,-5.18918 -1.74427,19.28001 -16.13395,-10.69846 -7.61676,17.79737 -12.03828,-15.16051 -12.74366,14.5726 -6.76424,-18.13854 -16.62312,9.92136 -0.82805,-19.34104 -18.87539,4.29895 5.18918,-18.650305 -19.28002,-1.744278 10.69847,-16.133946 -17.79737,-7.616757 15.16051,-12.038288 -14.5726,-12.743657 18.13853,-6.764237 -9.92135,-16.623117 19.34103,-0.828057 -4.29894,-18.8753916 18.6503,5.1891797 1.74428,-19.2800111 16.13395,10.6984637 7.61675,-17.7973687 12.03829,15.1605071 12.74366,-14.5725951 6.76424,18.1385337 16.62311,-9.9213557 0.82806,19.3410357 18.87539,-4.29894405 -5.18918,18.65030135 19.28001,1.744278 -10.69846,16.133946 17.79737,7.616758 -15.16051,12.038288 14.5726,12.743656 z"
       transform="matrix(0.89812101,0,0,0.42819136,917.69261,137.56587)" />
    <text
       xml:space="preserve"
       style="font-size:40px;font-style:normal;font-weight:normal;line-height:125%;letter-spacing:0px;word-spacing:0px;fill:#000000;fill-opacity:1;stroke:none;font-family:Sans"
       x="417.62131"
       y="163.72949"
       id="text3755-2-29"
       sodipodi:linespacing="125%"><tspan
         sodipodi:role="line"
         x="417.62131"
         y="163.72949"
         style="font-size:12px"
         id="tspan3066-6">ci:circlesSvg</tspan></text>
    <text
       xml:space="preserve"
       style="font-size:40px;font-style:normal;font-weight:normal;line-height:125%;letter-spacing:0px;word-spacing:0px;fill:#000000;fill-opacity:1;stroke:none;font-family:Sans"
       x="79.515411"
       y="342.94653"
       id="text3755-5-1-1"
       sodipodi:linespacing="125%"><tspan
         sodipodi:role="line"
         id="tspan3757-2-7-5"
         x="79.515411"
         y="342.94653"
         style="font-size:12px;font-style:normal;-inkscape-font-specification:Sans">&lt;circleAgesAdd.sparql&gt;</tspan></text>
    <text
       xml:space="preserve"
       style="font-size:40px;font-style:normal;font-weight:normal;line-height:125%;letter-spacing:0px;word-spacing:0px;fill:#000000;fill-opacity:1;stroke:none;font-family:Sans"
       x="529.43939"
       y="256.07339"
       id="text3755-5-1-6"
       sodipodi:linespacing="125%"><tspan
         sodipodi:role="line"
         id="tspan3757-2-7-8"
         x="529.43939"
         y="256.07339"
         style="font-size:12px;font-style:normal;-inkscape-font-specification:Sans">&lt;circles.sparql&gt;</tspan></text>
    <text
       xml:space="preserve"
       style="font-size:40px;font-style:normal;font-weight:normal;line-height:125%;letter-spacing:0px;word-spacing:0px;fill:#000000;fill-opacity:1;stroke:none;font-family:Sans"
       x="505.09418"
       y="92.428696"
       id="text3755-5-1-63"
       sodipodi:linespacing="125%"><tspan
         sodipodi:role="line"
         id="tspan3757-2-7-6"
         x="505.09418"
         y="92.428696"
         style="font-size:12px;font-style:normal;-inkscape-font-specification:Sans">&lt;circlesSvg.sparql&gt;</tspan></text>
    <text
       xml:space="preserve"
       style="font-size:40px;font-style:normal;font-weight:normal;line-height:125%;letter-spacing:0px;word-spacing:0px;fill:#000000;fill-opacity:1;stroke:none;font-family:Sans"
       x="233.96722"
       y="144.95663"
       id="text3755-5-1-63-7"
       sodipodi:linespacing="125%"><tspan
         sodipodi:role="line"
         id="tspan3757-2-7-6-5"
         x="233.96722"
         y="144.95663"
         style="font-size:12px;font-style:normal;-inkscape-font-specification:Sans">&lt;baseDoc.svg&gt;</tspan></text>
    <path
       sodipodi:type="arc"
       style="opacity:0.98999999;fill:#ffffff;stroke:#000000;stroke-width:2;stroke-miterlimit:4;stroke-opacity:1;stroke-dasharray:none;stroke-dashoffset:0"
       id="path4334-1-7"
       sodipodi:cx="557.09912"
       sodipodi:cy="160.90257"
       sodipodi:rx="101.52033"
       sodipodi:ry="32.829956"
       d="m 658.61945,160.90257 a 101.52033,32.829956 0 1 1 -203.04066,0 101.52033,32.829956 0 1 1 203.04066,0 z"
       transform="matrix(0.76484753,0,0,0.56380241,-208.91309,117.1574)" />
    <text
       xml:space="preserve"
       style="font-size:40px;font-style:normal;font-weight:normal;line-height:125%;letter-spacing:0px;word-spacing:0px;fill:#000000;fill-opacity:1;stroke:none;font-family:Sans"
       x="176.44945"
       y="210.63689"
       id="text3755-5-1-1-5"
       sodipodi:linespacing="125%"><tspan
         sodipodi:role="line"
         id="tspan3757-2-7-5-8"
         x="176.44945"
         y="210.63689"
         style="font-size:12px;font-style:normal;-inkscape-font-specification:Sans">&lt;config.n3&gt;</tspan></text>
    <path
       style="fill:none;stroke:#000000;stroke-width:1px;stroke-linecap:butt;stroke-linejoin:miter;stroke-opacity:1;marker-end:url(#Arrow2Lend)"
       d="m 384.67102,84.340072 44.92276,46.460408"
       id="path4523"
       inkscape:connector-type="polyline"
       inkscape:connector-curvature="0"
       inkscape:connection-start="#path4973-5"
       inkscape:connection-start-point="d4"
       inkscape:connection-end="#path4276"
       inkscape:connection-end-point="d4" />
    <path
       style="fill:none;stroke:#000000;stroke-width:1;stroke-linecap:butt;stroke-linejoin:miter;stroke-miterlimit:4;stroke-opacity:1;stroke-dasharray:4, 4;stroke-dashoffset:0;marker-end:url(#Arrow2Lend)"
       d="M 493.03224,137.6852 539.9688,106.10789"
       id="path4525"
       inkscape:connector-type="polyline"
       inkscape:connector-curvature="0"
       inkscape:connection-start="#path4276"
       inkscape:connection-start-point="d4"
       inkscape:connection-end="#path4334-96"
       inkscape:connection-end-point="d4" />
    <path
       style="fill:none;stroke:#000000;stroke-width:1px;stroke-linecap:butt;stroke-linejoin:miter;stroke-opacity:1;marker-end:url(#Arrow2Lend)"
       d="m 435.59954,187.62 -30.73185,35.74907"
       id="path4529"
       inkscape:connector-type="polyline"
       inkscape:connector-curvature="0"
       inkscape:connection-start="#path4276"
       inkscape:connection-start-point="d4"
       inkscape:connection-end="#path4276-0"
       inkscape:connection-end-point="d4" />
    <path
       style="fill:none;stroke:#000000;stroke-width:1px;stroke-linecap:butt;stroke-linejoin:miter;stroke-opacity:1;marker-end:url(#Arrow2Lend)"
       d="M 319.28077,234.09398 270.00858,221.44061"
       id="path4531"
       inkscape:connector-type="polyline"
       inkscape:connector-curvature="0"
       inkscape:connection-start="#path4276-0"
       inkscape:connection-start-point="d4"
       inkscape:connection-end="#path4334-1-7"
       inkscape:connection-end-point="d4" />
    <path
       style="fill:none;stroke:#000000;stroke-width:1px;stroke-linecap:butt;stroke-linejoin:miter;stroke-opacity:1;marker-end:url(#Arrow2Lend)"
       d="m 362.03528,276.03037 -32.75872,42.79864"
       id="path4533"
       inkscape:connector-type="polyline"
       inkscape:connector-curvature="0"
       inkscape:connection-start="#path4276-0"
       inkscape:connection-start-point="d4"
       inkscape:connection-end="#rect4307"
       inkscape:connection-end-point="d4" />
    <path
       style="fill:none;stroke:#000000;stroke-width:1px;stroke-linecap:butt;stroke-linejoin:miter;stroke-opacity:1;marker-end:url(#Arrow2Lend)"
       d="m 382.73799,278.64333 6.76843,214.13915"
       id="path4537"
       inkscape:connector-type="polyline"
       inkscape:connector-curvature="0"
       inkscape:connection-start="#path4276-0"
       inkscape:connection-start-point="d4"
       inkscape:connection-end="#path2985"
       inkscape:connection-end-point="d4" />
    <path
       style="fill:none;stroke:#000000;stroke-width:1;stroke-linecap:butt;stroke-linejoin:miter;stroke-miterlimit:4;stroke-opacity:1;stroke-dasharray:4, 4;stroke-dashoffset:0;marker-end:url(#Arrow2Lend)"
       d="M 216.62616,402.91456 170.94151,358.17302"
       id="path5529"
       inkscape:connector-type="polyline"
       inkscape:connector-curvature="0"
       inkscape:connection-start="#path4276-0-9"
       inkscape:connection-start-point="d4"
       inkscape:connection-end="#path4334-1"
       inkscape:connection-end-point="d4" />
    <path
       style="fill:none;stroke:#000000;stroke-width:1.12805116px;stroke-linecap:butt;stroke-linejoin:miter;stroke-opacity:1;marker-end:url(#Arrow2Lend)"
       d="m 367.73926,351.90635 99.01785,46.35372"
       id="path5533"
       inkscape:connector-type="polyline"
       inkscape:connector-curvature="0" />
    <path
       style="fill:none;stroke:#000000;stroke-width:1px;stroke-linecap:butt;stroke-linejoin:miter;stroke-opacity:1;marker-end:url(#Arrow2Lend)"
       d="m 282.09053,366.30618 -22.72946,33.9687"
       id="path5535"
       inkscape:connector-type="polyline"
       inkscape:connector-curvature="0" />
    <path
       style="fill:none;stroke:#000000;stroke-width:1;stroke-linecap:butt;stroke-linejoin:miter;stroke-miterlimit:4;stroke-opacity:1;stroke-dasharray:4, 4;stroke-dashoffset:0;marker-end:url(#Arrow2Lend)"
       d="m 526.65804,395.36181 33.84902,-39.95195"
       id="path5543"
       inkscape:connector-type="polyline"
       inkscape:connector-curvature="0"
       inkscape:connection-start="#path4276-0-7"
       inkscape:connection-start-point="d4"
       inkscape:connection-end="#path4334"
       inkscape:connection-end-point="d4" />
    <path
       style="fill:none;stroke:#000000;stroke-width:1px;stroke-linecap:butt;stroke-linejoin:miter;stroke-opacity:1;marker-end:url(#Arrow2Lend)"
       d="M 484.93715,395.12932 400.96666,277.05663"
       id="path5545"
       inkscape:connector-type="polyline"
       inkscape:connector-curvature="0"
       inkscape:connection-start="#path4276-0-7"
       inkscape:connection-start-point="d4"
       inkscape:connection-end="#path4276-0"
       inkscape:connection-end-point="d4" />
    <path
       style="fill:none;stroke:#000000;stroke-width:1.1830703px;stroke-linecap:butt;stroke-linejoin:miter;stroke-opacity:1;marker-end:url(#Arrow2Lend)"
       d="M 439.45548,413.38485 330.41377,367.08614"
       id="path5547"
       inkscape:connector-type="polyline"
       inkscape:connector-curvature="0" />
    <path
       style="fill:none;stroke:#000000;stroke-width:1.22459209px;stroke-linecap:butt;stroke-linejoin:miter;stroke-opacity:1;marker-end:url(#Arrow2Lend)"
       d="m 280.68655,403.19305 31.5556,-36.6923"
       id="path5549"
       inkscape:connector-type="polyline"
       inkscape:connector-curvature="0" />
    <path
       style="fill:none;stroke:#000000;stroke-width:1px;stroke-linecap:butt;stroke-linejoin:miter;stroke-opacity:1;marker-end:url(#Arrow2Lend)"
       d="m 285.0144,456.15376 68.99833,42.31622"
       id="path5551"
       inkscape:connector-type="polyline"
       inkscape:connector-curvature="0"
       inkscape:connection-start="#path4276-0-9"
       inkscape:connection-start-point="d4"
       inkscape:connection-end="#path2985"
       inkscape:connection-end-point="d4" />
    <path
       style="fill:none;stroke:#000000;stroke-width:1px;stroke-linecap:butt;stroke-linejoin:miter;stroke-opacity:1;marker-end:url(#Arrow2Lend)"
       d="M 243.39778,402.73941 219.67162,226.37494"
       id="path5553"
       inkscape:connector-type="polyline"
       inkscape:connector-curvature="0"
       inkscape:connection-start="#path4276-0-9"
       inkscape:connection-start-point="d4"
       inkscape:connection-end="#path4334-1-7"
       inkscape:connection-end-point="d4" />
    <path
       style="fill:none;stroke:#000000;stroke-width:1;stroke-linecap:butt;stroke-linejoin:miter;stroke-miterlimit:4;stroke-opacity:1;stroke-dasharray:4, 4;stroke-dashoffset:0;marker-end:url(#Arrow2Lend)"
       d="m 438.78385,250.78939 60.81324,0.67326"
       id="path5555"
       inkscape:connector-type="polyline"
       inkscape:connector-curvature="0"
       inkscape:connection-start="#path4276-0"
       inkscape:connection-start-point="d4"
       inkscape:connection-end="#path4334-9"
       inkscape:connection-end-point="d4" />
    <path
       style="fill:none;stroke:#000000;stroke-width:1px;stroke-linecap:butt;stroke-linejoin:miter;stroke-opacity:1;marker-end:url(#Arrow2Lend)"
       d="M 340.92611,84.387874 304.4194,124.3486"
       id="path5557"
       inkscape:connector-type="polyline"
       inkscape:connector-curvature="0"
       inkscape:connection-start="#path4973-5"
       inkscape:connection-start-point="d4"
       inkscape:connection-end="#path4334-6"
       inkscape:connection-end-point="d4" />
    <path
       style="fill:#000000;fill-opacity:1;fill-rule:evenodd;stroke:none"
       d="m 171.98237,677.71347 4.45147,-1.9152 c 0,0 15.06881,-5.02335 36.71309,-5.02335 21.64427,0 35.62632,4.44794 35.62632,4.44794 l 5.35712,1.9152 -0.36226,-1.56143 0,-11.39248 c 0,-1.95957 0.0503,-6.2575 -4.93082,-11.08734 -4.98105,-4.82985 -16.58448,-10.2016 -36.11665,-14.39319 l 0.064,1.06804 -0.064,-1.05532 c -39.06881,8.38415 -40.15096,21.59715 -40.15096,25.46781 l -0.76844,11.39248 z m 1.53155,-2.16376 0.66233,-11.44983 c 0,-3.81174 3.48372,-17.04417 38.58646,-24.92281 17.27261,3.87896 29.21154,9.1498 33.57338,13.37924 4.49881,4.36223 5.67541,9.46483 5.67541,11.4244 l -0.36226,10.97539 c -6.3697,-1.52463 -22.82847,-4.97399 -39.12072,-4.97399 -16.33875,0 -32.66256,4.04367 -39.0146,5.5676 z"
       id="path4973-5-3"
       sodipodi:nodetypes="ccsccccscccccccccsccsc"
       inkscape:connector-curvature="0" />
    <path
       sodipodi:type="star"
       style="opacity:0.98999999;fill:#ffffff;stroke:#000000;stroke-width:2;stroke-miterlimit:4;stroke-opacity:1;stroke-dasharray:none;stroke-dashoffset:0"
       id="path4276-0-97"
       sodipodi:sides="20"
       sodipodi:cx="-511.13718"
       sodipodi:cy="54.331474"
       sodipodi:r1="63.384796"
       sodipodi:r2="79.230995"
       sodipodi:arg1="0.33787819"
       sodipodi:arg2="0.49495782"
       inkscape:flatsided="false"
       inkscape:rounded="0"
       inkscape:randomized="0"
       d="m -451.33615,75.342647 9.92136,16.623117 -19.34104,0.828057 4.29895,18.875389 -18.65031,-5.18918 -1.74427,19.28001 -16.13395,-10.69846 -7.61676,17.79737 -12.03828,-15.16051 -12.74366,14.5726 -6.76424,-18.13854 -16.62312,9.92136 -0.82805,-19.34104 -18.87539,4.29895 5.18918,-18.650305 -19.28002,-1.744278 10.69847,-16.133946 -17.79737,-7.616757 15.16051,-12.038288 -14.5726,-12.743657 18.13853,-6.764237 -9.92135,-16.623117 19.34103,-0.828057 -4.29894,-18.8753916 18.6503,5.1891797 1.74428,-19.2800111 16.13395,10.6984637 7.61675,-17.7973687 12.03829,15.1605071 12.74366,-14.5725951 6.76424,18.1385337 16.62311,-9.9213557 0.82806,19.3410357 18.87539,-4.29894405 -5.18918,18.65030135 19.28001,1.744278 -10.69846,16.133946 17.79737,7.616758 -15.16051,12.038288 14.5726,12.743656 z"
       transform="matrix(0.5274684,0,0,0.24155158,481.98125,684.15956)" />
    <path
       sodipodi:type="arc"
       style="opacity:0.98999999;fill:#ffffff;stroke:#000000;stroke-width:2;stroke-miterlimit:4;stroke-opacity:1;stroke-dasharray:none;stroke-dashoffset:0"
       id="path4334-1-8"
       sodipodi:cx="557.09912"
       sodipodi:cy="160.90257"
       sodipodi:rx="101.52033"
       sodipodi:ry="32.829956"
       d="m 658.61945,160.90257 a 101.52033,32.829956 0 1 1 -203.04066,0 101.52033,32.829956 0 1 1 203.04066,0 z"
       transform="matrix(0.4491966,0,0,0.31805258,-36.094692,720.54734)" />
    <rect
       style="opacity:0.98999999;fill:#ffffff;stroke:#000000;stroke-width:1.15118945;stroke-miterlimit:4;stroke-opacity:1;stroke-dasharray:none;stroke-dashoffset:0"
       id="rect4307-6"
       width="65.259125"
       height="26.78285"
       x="179.74298"
       y="721.57068"
       ry="0"
       inkscape:connector-avoid="true" />
    <text
       xml:space="preserve"
       style="font-size:12px;font-style:normal;font-weight:normal;line-height:125%;letter-spacing:0px;word-spacing:0px;fill:#000000;fill-opacity:1;stroke:none;font-family:Sans"
       x="268.72089"
       y="666.2403"
       id="text5813"
       sodipodi:linespacing="125%"><tspan
         sodipodi:role="line"
         id="tspan5815"
         x="268.72089"
         y="666.2403">spinx:UnionGraph</tspan></text>
    <text
       xml:space="preserve"
       style="font-size:12px;font-style:normal;font-weight:normal;line-height:125%;letter-spacing:0px;word-spacing:0px;fill:#000000;fill-opacity:1;stroke:none;font-family:Sans"
       x="267.6701"
       y="702.66663"
       id="text5817"
       sodipodi:linespacing="125%"><tspan
         sodipodi:role="line"
         id="tspan5819"
         x="267.6701"
         y="702.66663">spinx:ConstructGraph</tspan></text>
    <text
       xml:space="preserve"
       style="font-size:12px;font-style:normal;font-weight:normal;line-height:125%;letter-spacing:0px;word-spacing:0px;fill:#000000;fill-opacity:1;stroke:none;font-family:Sans"
       x="268.63968"
       y="738.14386"
       id="text5821"
       sodipodi:linespacing="125%"><tspan
         sodipodi:role="line"
         id="tspan5823"
         x="268.63968"
         y="738.14386">spinx:UpdatableGraph</tspan></text>
    <text
       xml:space="preserve"
       style="font-size:12px;font-style:normal;font-weight:normal;line-height:125%;letter-spacing:0px;word-spacing:0px;fill:#000000;fill-opacity:1;stroke:none;font-family:Sans"
       x="268.74118"
       y="774.46875"
       id="text5825"
       sodipodi:linespacing="125%"><tspan
         sodipodi:role="line"
         id="tspan5827"
         x="268.74118"
         y="774.46875">spinx:LoadGraph</tspan></text>
    <text
       xml:space="preserve"
       style="font-size:12px;font-style:normal;font-weight:normal;line-height:125%;letter-spacing:0px;word-spacing:0px;fill:#000000;fill-opacity:1;stroke:none;font-family:Sans"
       x="240.01019"
       y="622.86462"
       id="text5829"
       sodipodi:linespacing="125%"><tspan
         sodipodi:role="line"
         id="tspan5831"
         x="240.01019"
         y="622.86462"
         style="font-weight:bold;-inkscape-font-specification:Sans Bold">Graph Type</tspan></text>
    <path
       style="fill:none;stroke:#000000;stroke-width:1px;stroke-linecap:butt;stroke-linejoin:miter;stroke-opacity:1;marker-end:url(#Arrow2Lend)"
       d="m 443.31483,654.423 47.47717,0"
       id="path5833"
       inkscape:connector-type="polyline"
       inkscape:connector-curvature="0" />
    <path
       style="fill:none;stroke:#000000;stroke-width:1;stroke-linecap:butt;stroke-linejoin:miter;stroke-miterlimit:4;stroke-opacity:1;stroke-dasharray:4, 4;stroke-dashoffset:0;marker-end:url(#Arrow2Lend)"
       d="m 443.4059,676.66398 47.47717,0"
       id="path5833-0"
       inkscape:connector-type="polyline"
       inkscape:connector-curvature="0" />
    <text
       xml:space="preserve"
       style="font-size:12px;font-style:normal;font-weight:normal;line-height:125%;letter-spacing:0px;word-spacing:0px;fill:#000000;fill-opacity:1;stroke:none;font-family:Sans"
       x="470.55917"
       y="621.15875"
       id="text5829-9"
       sodipodi:linespacing="125%"><tspan
         sodipodi:role="line"
         id="tspan5831-8"
         x="470.55917"
         y="621.15875"
         style="font-weight:bold;-inkscape-font-specification:Sans Bold">Properties</tspan></text>
    <text
       xml:space="preserve"
       style="font-size:12px;font-style:normal;font-weight:normal;line-height:125%;letter-spacing:0px;word-spacing:0px;fill:#000000;fill-opacity:1;stroke:none;font-family:Sans"
       x="501.8783"
       y="656.72339"
       id="text5813-5"
       sodipodi:linespacing="125%"><tspan
         sodipodi:role="line"
         id="tspan5815-3"
         x="501.8783"
         y="656.72339">spinx:input</tspan></text>
    <text
       xml:space="preserve"
       style="font-size:12px;font-style:normal;font-weight:normal;line-height:125%;letter-spacing:0px;word-spacing:0px;fill:#000000;fill-opacity:1;stroke:none;font-family:Sans"
       x="500.86816"
       y="679.95691"
       id="text5813-7"
       sodipodi:linespacing="125%"><tspan
         sodipodi:role="line"
         id="tspan5815-8"
         x="500.86816"
         y="679.95691">spinx:config</tspan></text>
    <text
       xml:space="preserve"
       style="font-size:40px;font-style:normal;font-weight:normal;line-height:125%;letter-spacing:0px;word-spacing:0px;fill:#000000;fill-opacity:1;stroke:none;font-family:Sans"
       x="278.44336"
       y="361.7182"
       id="text3755-2-6"
       sodipodi:linespacing="125%"><tspan
         sodipodi:role="line"
         x="278.44336"
         y="361.7182"
         style="font-size:12px;font-weight:bold;-inkscape-font-specification:Sans Bold"
         id="tspan3066-89">+</tspan></text>
    <text
       xml:space="preserve"
       style="font-size:40px;font-style:normal;font-weight:normal;line-height:125%;letter-spacing:0px;word-spacing:0px;fill:#000000;fill-opacity:1;stroke:none;font-family:Sans"
       x="358.60727"
       y="353.05774"
       id="text3755-2-6-3"
       sodipodi:linespacing="125%"><tspan
         sodipodi:role="line"
         x="358.60727"
         y="353.05774"
         style="font-size:12px;font-weight:bold;-inkscape-font-specification:Sans Bold"
         id="tspan3066-89-8">-</tspan></text>
    <text
       xml:space="preserve"
       style="font-size:40px;font-style:normal;font-weight:normal;line-height:125%;letter-spacing:0px;word-spacing:0px;fill:#000000;fill-opacity:1;stroke:none;font-family:Sans"
       x="182.38127"
       y="744.68829"
       id="text3755-2-6-2"
       sodipodi:linespacing="125%"><tspan
         sodipodi:role="line"
         x="182.38127"
         y="744.68829"
         style="font-size:12px;font-weight:bold;-inkscape-font-specification:Sans Bold"
         id="tspan3066-89-1">+</tspan></text>
    <text
       xml:space="preserve"
       style="font-size:40px;font-style:normal;font-weight:normal;line-height:125%;letter-spacing:0px;word-spacing:0px;fill:#000000;fill-opacity:1;stroke:none;font-family:Sans"
       x="235.27107"
       y="744.10907"
       id="text3755-2-6-3-8"
       sodipodi:linespacing="125%"><tspan
         sodipodi:role="line"
         x="235.27107"
         y="744.10907"
         style="font-size:12px;font-weight:bold;-inkscape-font-specification:Sans Bold"
         id="tspan3066-89-8-7">-</tspan></text>
  </g>
</svg>
